# Blender 4.2.1 LTS
# www.blender.org
mtllib bolaDeFuego.mtl
o m0
v 0.000000 -0.266689 0.000000
v 0.039053 -0.246387 0.094287
v 0.072158 -0.246387 0.072158
v 0.072158 -0.188574 0.174219
v 0.133340 -0.188574 0.133340
v 0.094287 -0.102051 0.227627
v 0.174219 -0.102051 0.174219
v 0.102051 0.000000 0.246387
v 0.188574 0.000000 0.188574
v 0.174219 0.102051 0.174219
v 0.227627 0.102051 0.094287
v 0.174219 0.188574 0.072158
v 0.188574 0.188574 -0.000000
v 0.102051 0.246387 -0.000000
v 0.094287 0.246387 -0.039053
v 0.000000 0.266689 -0.000000
v 0.000000 -0.246387 0.102051
v 0.000000 -0.188574 0.188574
v 0.000000 -0.102051 0.246387
v 0.000000 0.000000 0.266689
v 0.094287 0.102051 0.227627
v 0.133340 0.188574 0.133340
v 0.094287 0.246387 0.039053
v -0.039053 -0.246387 0.094287
v -0.072158 -0.188574 0.174219
v -0.094287 -0.102051 0.227627
v -0.102051 0.000000 0.246387
v 0.000000 0.102051 0.246387
v 0.072158 0.188574 0.174219
v 0.072158 0.246387 0.072158
v -0.072158 -0.246387 0.072158
v -0.133340 -0.188574 0.133340
v -0.174219 -0.102051 0.174219
v -0.188574 0.000000 0.188574
v -0.094287 0.102051 0.227627
v 0.000000 0.188574 0.188574
v 0.039053 0.246387 0.094287
v -0.094287 -0.246387 0.039053
v -0.174219 -0.188574 0.072158
v -0.227627 -0.102051 0.094287
v -0.246387 0.000000 0.102051
v -0.174219 0.102051 0.174219
v -0.072158 0.188574 0.174219
v 0.000000 0.246387 0.102051
v -0.102051 -0.246387 0.000000
v -0.188574 -0.188574 0.000000
v -0.246387 -0.102051 0.000000
v -0.266689 0.000000 0.000000
v -0.227627 0.102051 0.094287
v -0.133340 0.188574 0.133340
v -0.039053 0.246387 0.094287
v -0.094287 -0.246387 -0.039053
v -0.174219 -0.188574 -0.072158
v -0.227627 -0.102051 -0.094287
v -0.246387 -0.000000 -0.102051
v -0.246387 0.102051 -0.000000
v -0.174219 0.188574 0.072158
v -0.072158 0.246387 0.072158
v -0.072158 -0.246387 -0.072158
v -0.133340 -0.188574 -0.133340
v -0.174219 -0.102051 -0.174219
v -0.188574 -0.000000 -0.188574
v -0.227627 0.102051 -0.094287
v -0.188574 0.188574 -0.000000
v -0.094287 0.246387 0.039053
v -0.039053 -0.246387 -0.094287
v -0.072158 -0.188574 -0.174219
v -0.094287 -0.102051 -0.227627
v -0.102051 -0.000000 -0.246387
v -0.174219 0.102051 -0.174219
v -0.174219 0.188574 -0.072158
v -0.102051 0.246387 -0.000000
v 0.000000 -0.246387 -0.102051
v 0.000000 -0.188574 -0.188574
v 0.000000 -0.102051 -0.246387
v 0.000000 -0.000000 -0.266689
v -0.094287 0.102051 -0.227627
v -0.133340 0.188574 -0.133340
v -0.094287 0.246387 -0.039053
v 0.039053 -0.246387 -0.094287
v 0.072158 -0.188574 -0.174219
v 0.094287 -0.102051 -0.227627
v 0.102051 -0.000000 -0.246387
v 0.000000 0.102051 -0.246387
v -0.072158 0.188574 -0.174219
v -0.072158 0.246387 -0.072158
v 0.072158 -0.246387 -0.072158
v 0.133340 -0.188574 -0.133340
v 0.174219 -0.102051 -0.174219
v 0.188574 -0.000000 -0.188574
v 0.094287 0.102051 -0.227627
v 0.000000 0.188574 -0.188574
v -0.039053 0.246387 -0.094287
v 0.094287 -0.246387 -0.039053
v 0.174219 -0.188574 -0.072158
v 0.227627 -0.102051 -0.094287
v 0.246387 -0.000000 -0.102051
v 0.174219 0.102051 -0.174219
v 0.072158 0.188574 -0.174219
v 0.000000 0.246387 -0.102051
v 0.094287 -0.246387 0.039053
v 0.174219 -0.188574 0.072158
v 0.227627 -0.102051 0.094287
v 0.246387 0.000000 0.102051
v 0.246387 0.102051 -0.000000
v 0.174219 0.188574 -0.072158
v 0.102051 -0.246387 0.000000
v 0.188574 -0.188574 0.000000
v 0.246387 -0.102051 0.000000
v 0.266689 0.000000 0.000000
v 0.227627 0.102051 -0.094287
v 0.039053 0.246387 -0.094287
v 0.133340 0.188574 -0.133340
v 0.072158 0.246387 -0.072158
vn 0.2850 -0.9152 0.2850
vn 0.1543 -0.9151 0.3724
vn -0.0000 -1.0000 -0.0000
vn 0.2751 -0.6951 0.6641
vn 0.5083 -0.6951 0.5083
vn 0.3549 -0.3744 0.8567
vn 0.6557 -0.3744 0.6557
vn 0.3827 -0.0000 0.9239
vn 0.7071 -0.0000 0.7071
vn 0.6557 0.3744 0.6557
vn 0.8567 0.3744 0.3549
vn 0.6642 0.6951 0.2751
vn 0.7189 0.6951 -0.0000
vn 0.4031 0.9152 -0.0000
vn 0.3724 0.9151 -0.1543
vn -0.0000 1.0000 -0.0000
vn -0.0000 -0.9152 0.4031
vn -0.0000 -0.6951 0.7189
vn -0.0000 -0.3744 0.9273
vn -0.0000 -0.0000 1.0000
vn 0.3549 0.3744 0.8567
vn 0.5083 0.6951 0.5083
vn 0.3724 0.9151 0.1543
vn -0.1543 -0.9151 0.3724
vn -0.2751 -0.6951 0.6642
vn -0.3549 -0.3744 0.8567
vn -0.3827 -0.0000 0.9239
vn -0.0000 0.3744 0.9273
vn 0.2751 0.6951 0.6641
vn 0.2850 0.9152 0.2850
vn -0.2850 -0.9152 0.2850
vn -0.5083 -0.6951 0.5083
vn -0.6557 -0.3744 0.6557
vn -0.7071 -0.0000 0.7071
vn -0.3549 0.3744 0.8567
vn -0.0000 0.6951 0.7189
vn 0.1543 0.9151 0.3724
vn -0.3724 -0.9151 0.1543
vn -0.6641 -0.6951 0.2751
vn -0.8567 -0.3744 0.3549
vn -0.9239 -0.0000 0.3827
vn -0.6557 0.3744 0.6557
vn -0.2751 0.6951 0.6642
vn -0.0000 0.9152 0.4031
vn -0.4031 -0.9152 -0.0000
vn -0.7189 -0.6951 -0.0000
vn -0.9273 -0.3744 -0.0000
vn -1.0000 -0.0000 -0.0000
vn -0.8567 0.3744 0.3549
vn -0.5083 0.6951 0.5083
vn -0.1543 0.9151 0.3724
vn -0.3724 -0.9151 -0.1543
vn -0.6642 -0.6951 -0.2751
vn -0.8567 -0.3744 -0.3549
vn -0.9239 -0.0000 -0.3827
vn -0.9273 0.3744 -0.0000
vn -0.6641 0.6951 0.2751
vn -0.2850 0.9152 0.2850
vn -0.2850 -0.9152 -0.2850
vn -0.5083 -0.6951 -0.5083
vn -0.6557 -0.3744 -0.6557
vn -0.7071 -0.0000 -0.7071
vn -0.8567 0.3744 -0.3549
vn -0.7189 0.6951 -0.0000
vn -0.3724 0.9151 0.1543
vn -0.1543 -0.9151 -0.3724
vn -0.2751 -0.6951 -0.6641
vn -0.3549 -0.3744 -0.8567
vn -0.3827 -0.0000 -0.9239
vn -0.6557 0.3744 -0.6557
vn -0.6642 0.6951 -0.2751
vn -0.4031 0.9152 -0.0000
vn -0.0000 -0.9152 -0.4031
vn -0.0000 -0.6951 -0.7189
vn -0.0000 -0.3744 -0.9273
vn -0.0000 -0.0000 -1.0000
vn -0.3549 0.3744 -0.8567
vn -0.5083 0.6951 -0.5083
vn -0.3724 0.9151 -0.1543
vn 0.1543 -0.9151 -0.3724
vn 0.2751 -0.6951 -0.6642
vn 0.3549 -0.3744 -0.8567
vn 0.3827 -0.0000 -0.9239
vn -0.0000 0.3744 -0.9273
vn -0.2751 0.6951 -0.6641
vn -0.2850 0.9152 -0.2850
vn 0.2850 -0.9152 -0.2850
vn 0.5083 -0.6951 -0.5083
vn 0.6557 -0.3744 -0.6557
vn 0.7071 -0.0000 -0.7071
vn 0.3549 0.3744 -0.8567
vn -0.0000 0.6951 -0.7189
vn -0.1543 0.9151 -0.3724
vn 0.3724 -0.9151 -0.1543
vn 0.6641 -0.6951 -0.2751
vn 0.8567 -0.3744 -0.3549
vn 0.9239 -0.0000 -0.3827
vn 0.6557 0.3744 -0.6557
vn 0.2751 0.6951 -0.6642
vn -0.0000 0.9152 -0.4031
vn 0.3724 -0.9151 0.1543
vn 0.6642 -0.6951 0.2751
vn 0.8567 -0.3744 0.3549
vn 0.9239 -0.0000 0.3827
vn 0.9273 0.3744 -0.0000
vn 0.6641 0.6951 -0.2751
vn 0.4031 -0.9152 -0.0000
vn 0.7189 -0.6951 -0.0000
vn 0.9273 -0.3744 -0.0000
vn 1.0000 -0.0000 -0.0000
vn 0.8567 0.3744 -0.3549
vn 0.1543 0.9151 -0.3724
vn 0.5083 0.6951 -0.5083
vn 0.2850 0.9152 -0.2850
vt 0.812500 0.127075
vt 0.750000 0.127075
vt 0.780701 0.014587
vt 0.750000 0.252075
vt 0.812500 0.252075
vt 0.750000 0.377075
vt 0.812500 0.377075
vt 0.750000 0.500000
vt 0.812500 0.500000
vt 0.812500 0.625000
vt 0.875000 0.625000
vt 0.875000 0.750000
vt 0.937500 0.750000
vt 0.937500 0.875000
vt 1.000000 0.875000
vt 0.967468 0.987549
vt 0.687500 0.127075
vt 0.707642 0.014587
vt 0.687500 0.252075
vt 0.687500 0.377075
vt 0.687500 0.500000
vt 0.750000 0.625000
vt 0.812500 0.750000
vt 0.875000 0.875000
vt 0.905579 0.987549
vt 0.625000 0.127075
vt 0.653564 0.014587
vt 0.625000 0.252075
vt 0.625000 0.377075
vt 0.625000 0.500000
vt 0.687500 0.625000
vt 0.750000 0.750000
vt 0.812500 0.875000
vt 0.845886 0.987549
vt 0.562500 0.127075
vt 0.593933 0.014587
vt 0.562500 0.252075
vt 0.562500 0.377075
vt 0.562500 0.500000
vt 0.625000 0.625000
vt 0.687500 0.750000
vt 0.750000 0.875000
vt 0.780701 0.987549
vt 0.500000 0.127075
vt 0.530884 0.014587
vt 0.500000 0.252075
vt 0.500000 0.377075
vt 0.500000 0.500000
vt 0.562500 0.625000
vt 0.625000 0.750000
vt 0.687500 0.875000
vt 0.707642 0.987549
vt 0.437500 0.127075
vt 0.470947 0.014587
vt 0.437500 0.252075
vt 0.437500 0.377075
vt 0.437500 0.500000
vt 0.500000 0.625000
vt 0.562500 0.750000
vt 0.625000 0.875000
vt 0.653564 0.987549
vt 0.375000 0.127075
vt 0.406799 0.014587
vt 0.375000 0.252075
vt 0.375000 0.377075
vt 0.375000 0.500000
vt 0.437500 0.625000
vt 0.500000 0.750000
vt 0.562500 0.875000
vt 0.593933 0.987549
vt 0.312500 0.127075
vt 0.348694 0.014587
vt 0.312500 0.252075
vt 0.312500 0.377075
vt 0.312500 0.500000
vt 0.375000 0.625000
vt 0.437500 0.750000
vt 0.500000 0.875000
vt 0.530884 0.987549
vt 0.250000 0.127075
vt 0.285400 0.014587
vt 0.250000 0.252075
vt 0.250000 0.377075
vt 0.250000 0.500000
vt 0.312500 0.625000
vt 0.375000 0.750000
vt 0.437500 0.875000
vt 0.470947 0.987549
vt 0.187500 0.127075
vt 0.218689 0.014587
vt 0.187500 0.252075
vt 0.187500 0.377075
vt 0.187500 0.500000
vt 0.250000 0.625000
vt 0.312500 0.750000
vt 0.375000 0.875000
vt 0.406799 0.987549
vt 0.125000 0.127075
vt 0.158020 0.014587
vt 0.125000 0.252075
vt 0.125000 0.377075
vt 0.125000 0.500000
vt 0.187500 0.625000
vt 0.250000 0.750000
vt 0.312500 0.875000
vt 0.348694 0.987549
vt 0.062500 0.127075
vt 0.100769 0.014587
vt 0.062500 0.252075
vt 0.062500 0.377075
vt 0.062500 0.500000
vt 0.125000 0.625000
vt 0.187500 0.750000
vt 0.250000 0.875000
vt 0.285400 0.987549
vt 0.000000 0.127075
vt 0.041809 0.014587
vt 0.000000 0.252075
vt 0.000000 0.377075
vt 0.000000 0.500000
vt 0.062500 0.625000
vt 0.125000 0.750000
vt 0.187500 0.875000
vt 0.218689 0.987549
vt 0.875000 0.127075
vt 0.845886 0.014587
vt 0.875000 0.252075
vt 0.875000 0.377075
vt 0.875000 0.500000
vt 0.937500 0.625000
vt 1.000000 0.750000
vt 0.937500 0.127075
vt 0.905579 0.014587
vt 0.937500 0.252075
vt 0.937500 0.377075
vt 0.937500 0.500000
vt 1.000000 0.625000
vt 1.000000 0.127075
vt 0.967468 0.014587
vt 1.000000 0.252075
vt 1.000000 0.377075
vt 1.000000 0.500000
vt 0.125000 0.875000
vt 0.158020 0.987549
vt 0.062500 0.750000
vt 0.000000 0.625000
vt 0.062500 0.875000
vt 0.100769 0.987549
vt 0.000000 0.750000
vt 0.000000 0.875000
vt 0.041809 0.987549
s 1
usemtl lambert1
f 3/1/1 2/2/2 1/3/3
f 4/4/4 2/2/2 3/1/1
f 5/5/5 4/4/4 3/1/1
f 6/6/6 4/4/4 5/5/5
f 7/7/7 6/6/6 5/5/5
f 8/8/8 6/6/6 7/7/7
f 9/9/9 8/8/8 7/7/7
f 10/10/10 8/8/8 9/9/9
f 11/11/11 10/10/10 9/9/9
f 12/12/12 10/10/10 11/11/11
f 13/13/13 12/12/12 11/11/11
f 14/14/14 12/12/12 13/13/13
f 15/15/15 14/14/14 13/13/13
f 16/16/16 14/14/14 15/15/15
f 2/2/2 17/17/17 1/18/3
f 18/19/18 17/17/17 2/2/2
f 4/4/4 18/19/18 2/2/2
f 19/20/19 18/19/18 4/4/4
f 6/6/6 19/20/19 4/4/4
f 20/21/20 19/20/19 6/6/6
f 8/8/8 20/21/20 6/6/6
f 21/22/21 20/21/20 8/8/8
f 10/10/10 21/22/21 8/8/8
f 22/23/22 21/22/21 10/10/10
f 12/12/12 22/23/22 10/10/10
f 23/24/23 22/23/22 12/12/12
f 14/14/14 23/24/23 12/12/12
f 16/25/16 23/24/23 14/14/14
f 17/17/17 24/26/24 1/27/3
f 25/28/25 24/26/24 17/17/17
f 18/19/18 25/28/25 17/17/17
f 26/29/26 25/28/25 18/19/18
f 19/20/19 26/29/26 18/19/18
f 27/30/27 26/29/26 19/20/19
f 20/21/20 27/30/27 19/20/19
f 28/31/28 27/30/27 20/21/20
f 21/22/21 28/31/28 20/21/20
f 29/32/29 28/31/28 21/22/21
f 22/23/22 29/32/29 21/22/21
f 30/33/30 29/32/29 22/23/22
f 23/24/23 30/33/30 22/23/22
f 16/34/16 30/33/30 23/24/23
f 24/26/24 31/35/31 1/36/3
f 32/37/32 31/35/31 24/26/24
f 25/28/25 32/37/32 24/26/24
f 33/38/33 32/37/32 25/28/25
f 26/29/26 33/38/33 25/28/25
f 34/39/34 33/38/33 26/29/26
f 27/30/27 34/39/34 26/29/26
f 35/40/35 34/39/34 27/30/27
f 28/31/28 35/40/35 27/30/27
f 36/41/36 35/40/35 28/31/28
f 29/32/29 36/41/36 28/31/28
f 37/42/37 36/41/36 29/32/29
f 30/33/30 37/42/37 29/32/29
f 16/43/16 37/42/37 30/33/30
f 31/35/31 38/44/38 1/45/3
f 39/46/39 38/44/38 31/35/31
f 32/37/32 39/46/39 31/35/31
f 40/47/40 39/46/39 32/37/32
f 33/38/33 40/47/40 32/37/32
f 41/48/41 40/47/40 33/38/33
f 34/39/34 41/48/41 33/38/33
f 42/49/42 41/48/41 34/39/34
f 35/40/35 42/49/42 34/39/34
f 43/50/43 42/49/42 35/40/35
f 36/41/36 43/50/43 35/40/35
f 44/51/44 43/50/43 36/41/36
f 37/42/37 44/51/44 36/41/36
f 16/52/16 44/51/44 37/42/37
f 38/44/38 45/53/45 1/54/3
f 46/55/46 45/53/45 38/44/38
f 39/46/39 46/55/46 38/44/38
f 47/56/47 46/55/46 39/46/39
f 40/47/40 47/56/47 39/46/39
f 48/57/48 47/56/47 40/47/40
f 41/48/41 48/57/48 40/47/40
f 49/58/49 48/57/48 41/48/41
f 42/49/42 49/58/49 41/48/41
f 50/59/50 49/58/49 42/49/42
f 43/50/43 50/59/50 42/49/42
f 51/60/51 50/59/50 43/50/43
f 44/51/44 51/60/51 43/50/43
f 16/61/16 51/60/51 44/51/44
f 45/53/45 52/62/52 1/63/3
f 53/64/53 52/62/52 45/53/45
f 46/55/46 53/64/53 45/53/45
f 54/65/54 53/64/53 46/55/46
f 47/56/47 54/65/54 46/55/46
f 55/66/55 54/65/54 47/56/47
f 48/57/48 55/66/55 47/56/47
f 56/67/56 55/66/55 48/57/48
f 49/58/49 56/67/56 48/57/48
f 57/68/57 56/67/56 49/58/49
f 50/59/50 57/68/57 49/58/49
f 58/69/58 57/68/57 50/59/50
f 51/60/51 58/69/58 50/59/50
f 16/70/16 58/69/58 51/60/51
f 52/62/52 59/71/59 1/72/3
f 60/73/60 59/71/59 52/62/52
f 53/64/53 60/73/60 52/62/52
f 61/74/61 60/73/60 53/64/53
f 54/65/54 61/74/61 53/64/53
f 62/75/62 61/74/61 54/65/54
f 55/66/55 62/75/62 54/65/54
f 63/76/63 62/75/62 55/66/55
f 56/67/56 63/76/63 55/66/55
f 64/77/64 63/76/63 56/67/56
f 57/68/57 64/77/64 56/67/56
f 65/78/65 64/77/64 57/68/57
f 58/69/58 65/78/65 57/68/57
f 16/79/16 65/78/65 58/69/58
f 59/71/59 66/80/66 1/81/3
f 67/82/67 66/80/66 59/71/59
f 60/73/60 67/82/67 59/71/59
f 68/83/68 67/82/67 60/73/60
f 61/74/61 68/83/68 60/73/60
f 69/84/69 68/83/68 61/74/61
f 62/75/62 69/84/69 61/74/61
f 70/85/70 69/84/69 62/75/62
f 63/76/63 70/85/70 62/75/62
f 71/86/71 70/85/70 63/76/63
f 64/77/64 71/86/71 63/76/63
f 72/87/72 71/86/71 64/77/64
f 65/78/65 72/87/72 64/77/64
f 16/88/16 72/87/72 65/78/65
f 66/80/66 73/89/73 1/90/3
f 74/91/74 73/89/73 66/80/66
f 67/82/67 74/91/74 66/80/66
f 75/92/75 74/91/74 67/82/67
f 68/83/68 75/92/75 67/82/67
f 76/93/76 75/92/75 68/83/68
f 69/84/69 76/93/76 68/83/68
f 77/94/77 76/93/76 69/84/69
f 70/85/70 77/94/77 69/84/69
f 78/95/78 77/94/77 70/85/70
f 71/86/71 78/95/78 70/85/70
f 79/96/79 78/95/78 71/86/71
f 72/87/72 79/96/79 71/86/71
f 16/97/16 79/96/79 72/87/72
f 73/89/73 80/98/80 1/99/3
f 81/100/81 80/98/80 73/89/73
f 74/91/74 81/100/81 73/89/73
f 82/101/82 81/100/81 74/91/74
f 75/92/75 82/101/82 74/91/74
f 83/102/83 82/101/82 75/92/75
f 76/93/76 83/102/83 75/92/75
f 84/103/84 83/102/83 76/93/76
f 77/94/77 84/103/84 76/93/76
f 85/104/85 84/103/84 77/94/77
f 78/95/78 85/104/85 77/94/77
f 86/105/86 85/104/85 78/95/78
f 79/96/79 86/105/86 78/95/78
f 16/106/16 86/105/86 79/96/79
f 80/98/80 87/107/87 1/108/3
f 88/109/88 87/107/87 80/98/80
f 81/100/81 88/109/88 80/98/80
f 89/110/89 88/109/88 81/100/81
f 82/101/82 89/110/89 81/100/81
f 90/111/90 89/110/89 82/101/82
f 83/102/83 90/111/90 82/101/82
f 91/112/91 90/111/90 83/102/83
f 84/103/84 91/112/91 83/102/83
f 92/113/92 91/112/91 84/103/84
f 85/104/85 92/113/92 84/103/84
f 93/114/93 92/113/92 85/104/85
f 86/105/86 93/114/93 85/104/85
f 16/115/16 93/114/93 86/105/86
f 87/107/87 94/116/94 1/117/3
f 95/118/95 94/116/94 87/107/87
f 88/109/88 95/118/95 87/107/87
f 96/119/96 95/118/95 88/109/88
f 89/110/89 96/119/96 88/109/88
f 97/120/97 96/119/96 89/110/89
f 90/111/90 97/120/97 89/110/89
f 98/121/98 97/120/97 90/111/90
f 91/112/91 98/121/98 90/111/90
f 99/122/99 98/121/98 91/112/91
f 92/113/92 99/122/99 91/112/91
f 100/123/100 99/122/99 92/113/92
f 93/114/93 100/123/100 92/113/92
f 16/124/16 100/123/100 93/114/93
f 101/125/101 3/1/1 1/126/3
f 5/5/5 3/1/1 101/125/101
f 102/127/102 5/5/5 101/125/101
f 7/7/7 5/5/5 102/127/102
f 103/128/103 7/7/7 102/127/102
f 9/9/9 7/7/7 103/128/103
f 104/129/104 9/9/9 103/128/103
f 11/11/11 9/9/9 104/129/104
f 105/130/105 11/11/11 104/129/104
f 13/13/13 11/11/11 105/130/105
f 106/131/106 13/13/13 105/130/105
f 15/15/15 13/13/13 106/131/106
f 107/132/107 101/125/101 1/133/3
f 102/127/102 101/125/101 107/132/107
f 108/134/108 102/127/102 107/132/107
f 103/128/103 102/127/102 108/134/108
f 109/135/109 103/128/103 108/134/108
f 104/129/104 103/128/103 109/135/109
f 110/136/110 104/129/104 109/135/109
f 105/130/105 104/129/104 110/136/110
f 111/137/111 105/130/105 110/136/110
f 106/131/106 105/130/105 111/137/111
f 94/138/94 107/132/107 1/139/3
f 108/134/108 107/132/107 94/138/94
f 95/140/95 108/134/108 94/138/94
f 109/135/109 108/134/108 95/140/95
f 96/141/96 109/135/109 95/140/95
f 110/136/110 109/135/109 96/141/96
f 97/142/97 110/136/110 96/141/96
f 111/137/111 110/136/110 97/142/97
f 112/143/112 100/123/100 16/144/16
f 99/122/99 100/123/100 112/143/112
f 113/145/113 99/122/99 112/143/112
f 98/121/98 99/122/99 113/145/113
f 111/146/111 98/121/98 113/145/113
f 97/120/97 98/121/98 111/146/111
f 114/147/114 112/143/112 16/148/16
f 113/145/113 112/143/112 114/147/114
f 106/149/106 113/145/113 114/147/114
f 111/146/111 113/145/113 106/149/106
f 15/150/15 114/147/114 16/151/16
f 106/149/106 114/147/114 15/150/15
