# 3ds Max Wavefront OBJ Exporter v0.99 - (c)2007 guruware
# File Created: 20.10.2024 22:57:59

mtllib casilla27.mtl

#
# object Cube
#

v  2.0000 0.2500 -2.0000
v  -2.0000 0.2500 2.0000
v  2.0000 0.2500 2.0000
v  -2.0000 0.2500 -2.0000
# 4 vertices

vn -0.0000 1.0000 -0.0000
# 1 vertex normals

vt 0.0009 0.0125 0.0000
vt 0.9961 0.9959 0.0000
vt -0.0000 1.0081 0.0000
vt 1.0038 0.0134 0.0000
# 4 texture coords

o Cube
g Cube
usemtl Material_001
s off
f 1/1/1 2/2/1 3/3/1 
f 1/1/1 4/4/1 2/2/1 
# 0 polygons - 2 triangles

