# 3ds Max Wavefront OBJ Exporter v0.99 - (c)2007 guruware
# File Created: 29.10.2024 20:48:17

mtllib casilla27.mtl

#
# object Object001
#

v  -2.000 0.250 2.000
v  2.000 0.250 -2.000
v  -2.000 0.250 -2.000
v  2.000 0.250 2.000
# 4 vertices

vn -0.000 1.000 -0.000
# 1 vertex normals

vt 0.008 0.002 0.000
vt 0.996 0.994 0.000
vt 0.008 0.994 0.000
vt 0.996 0.002 0.000
# 4 texture coords

o Object001
g Object001
usemtl 07___Default
s off
f 1/1/1 2/2/1 3/3/1 
f 1/1/1 4/4/1 2/2/1 
# 0 polygons - 2 triangles

