# Blender 4.2.1 LTS
# www.blender.org
mtllib casilla05.mtl
o Cube
v 2.000000 0.250000 -2.000000
v 2.000000 -0.250000 -2.000000
v 2.000000 0.250000 2.000000
v 2.000000 -0.250000 2.000000
v -2.000000 0.250000 -2.000000
v -2.000000 -0.250000 -2.000000
v -2.000000 0.250000 2.000000
v -2.000000 -0.250000 2.000000
vn -0.0000 1.0000 -0.0000
vn -0.0000 -0.0000 1.0000
vn -1.0000 -0.0000 -0.0000
vn -0.0000 -1.0000 -0.0000
vn 1.0000 -0.0000 -0.0000
vn -0.0000 -0.0000 -1.0000
vt 0.998185 0.998377
vt 0.003167 0.000837
vt 0.997869 0.003565
vt 0.444452 0.444452
vt 0.000067 0.500000
vt 0.000067 0.444452
vt 0.375000 0.000000
vt 0.625000 0.250000
vt 0.375000 0.250000
vt 0.000067 0.000067
vt 0.375000 0.500000
vt 0.625000 0.750000
vt 0.375000 0.750000
vt 0.625000 0.500000
vt 0.001043 0.998471
vt 0.444452 0.500000
vt 0.625000 0.000000
vt 0.125000 0.500000
vt 0.000067 0.999933
vt 0.000067 0.944385
vt 0.444452 0.944385
s 0
usemtl Material.008
f 1/1/1 7/2/1 3/3/1
f 1/1/1 5/15/1 7/2/1
usemtl Material.009
f 4/4/2 7/5/2 8/6/2
f 8/7/3 5/8/3 6/9/3
f 6/10/4 4/4/4 8/6/4
f 2/11/5 3/12/5 4/13/5
f 6/9/6 1/14/6 2/11/6
f 4/4/2 3/16/2 7/5/2
f 8/7/3 7/17/3 5/8/3
f 6/18/4 2/11/4 4/13/4
f 2/11/5 1/14/5 3/12/5
f 6/19/6 5/20/6 1/21/6
