# 3ds Max Wavefront OBJ Exporter v0.99 - (c)2007 guruware
# File Created: 20.10.2024 19:05:20

mtllib casilla22.mtl

#
# object Cube
#

v  2.0000 0.2500 -2.0000
v  -2.0000 0.2500 2.0000
v  2.0000 0.2500 2.0000
v  -2.0000 0.2500 -2.0000
# 4 vertices

vn -0.0000 1.0000 -0.0000
# 1 vertex normals

vt 0.0009 0.0125 0.0000
vt 0.9961 0.9959 0.0000
vt -0.0000 1.0081 0.0000
vt 1.0038 0.0134 0.0000
# 4 texture coords

o Cube
g Cube
usemtl Material_001
s off
f 1/1/1 2/2/1 3/3/1 
f 1/1/1 4/4/1 2/2/1 
# 0 polygons - 2 triangles

#
# object Object001
#

v  2.0000 -0.2500 2.0000
v  -2.0000 0.2500 2.0000
v  -2.0000 -0.2500 2.0000
v  -2.0000 0.2500 -2.0000
v  -2.0000 -0.2500 -2.0000
v  2.0000 -0.2500 -2.0000
v  2.0000 0.2500 2.0000
v  2.0000 0.2500 -2.0000
# 8 vertices

vn -0.0000 -0.0000 1.0000
vn -1.0000 -0.0000 -0.0000
vn -0.0000 -1.0000 -0.0000
vn 1.0000 -0.0000 -0.0000
vn -0.0000 -0.0000 -1.0000
# 5 vertex normals

vt -0.2454 0.9972 0.0000
vt 0.0043 1.2475 0.0000
vt -0.2457 1.2472 0.0000
vt -0.2447 0.2472 0.0000
vt 0.0050 0.4975 0.0000
vt -0.2450 0.4972 0.0000
vt -0.4952 0.7470 0.0000
vt -0.4954 0.9970 0.0000
vt -0.2452 0.7472 0.0000
vt -0.0000 1.0081 0.0000
vt 0.0009 0.0125 0.0000
vt 0.0053 0.2475 0.0000
# 12 texture coords

o Object001
g Object001
usemtl 02___Default
s off
f 5/5/2 6/6/2 7/7/2 
f 7/8/3 8/9/3 9/10/3 
f 9/11/4 5/5/4 7/12/4 
f 10/13/5 11/14/5 5/5/5 
f 9/10/6 12/15/6 10/13/6 
f 5/5/2 11/14/2 6/6/2 
f 7/8/3 6/16/3 8/9/3 
f 9/11/4 10/13/4 5/5/4 
f 10/13/5 12/15/5 11/14/5 
f 9/10/6 8/9/6 12/15/6 
# 0 polygons - 10 triangles

