# 3ds Max Wavefront OBJ Exporter v0.99 - (c)2007 guruware
# File Created: 30.10.2024 13:57:54

mtllib casilla26AR.mtl

#
# object Cube
#

v  2.000 -0.250 2.000
v  -2.000 0.250 2.000
v  -2.000 -0.250 2.000
v  -2.000 0.250 -2.000
v  -2.000 -0.250 -2.000
v  2.000 -0.250 -2.000
v  2.000 0.250 2.000
v  2.000 0.250 -2.000
# 8 vertices

vn -0.000 -0.000 1.000
vn -1.000 -0.000 -0.000
vn -0.000 -1.000 -0.000
vn 1.000 -0.000 -0.000
vn -0.000 -0.000 -1.000
# 5 vertex normals

vt 0.375 0.750 0.000
vt 0.625 1.000 0.000
vt 0.375 1.000 0.000
vt 0.375 0.000 0.000
vt 0.625 0.250 0.000
vt 0.375 0.250 0.000
vt 0.125 0.500 0.000
vt 0.125 0.750 0.000
vt 0.375 0.500 0.000
vt 0.625 0.750 0.000
vt 0.625 0.500 0.000
vt 0.625 0.000 0.000
# 12 texture coords

o Cube
g Cube
usemtl Material_001
s off
f 1/1/1 2/2/1 3/3/1 
f 3/4/2 4/5/2 5/6/2 
f 5/7/3 1/1/3 3/8/3 
f 6/9/4 7/10/4 1/1/4 
f 5/6/5 8/11/5 6/9/5 
f 1/1/1 7/10/1 2/2/1 
f 3/4/2 2/12/2 4/5/2 
f 5/7/3 6/9/3 1/1/3 
f 6/9/4 8/11/4 7/10/4 
f 5/6/5 4/5/5 8/11/5 
# 0 polygons - 10 triangles

#
# object Object001
#

v  -2.000 0.250 2.000
v  2.000 0.250 -2.000
v  -2.000 0.250 -2.000
v  2.000 0.250 2.000
# 4 vertices

vn -0.000 1.000 -0.000
# 1 vertex normals

vt 0.008 0.002 0.000
vt 0.996 0.994 0.000
vt 0.008 0.994 0.000
vt 0.996 0.002 0.000
# 4 texture coords

o Object001
g Object001
usemtl 02___Default
s off
f 9/13/6 10/14/6 11/15/6 
f 9/13/6 12/16/6 10/14/6 
# 0 polygons - 2 triangles

