# Blender 4.2.1 LTS
# www.blender.org
mtllib casilla04.mtl
o Cube
v 2.000000 0.250000 -2.000000
v 2.000000 -0.250000 -2.000000
v 2.000000 0.250000 2.000000
v 2.000000 -0.250000 2.000000
v -2.000000 0.250000 -2.000000
v -2.000000 -0.250000 -2.000000
v -2.000000 0.250000 2.000000
v -2.000000 -0.250000 2.000000
vn -0.0000 1.0000 -0.0000
vn -0.0000 -0.0000 1.0000
vn -1.0000 -0.0000 -0.0000
vn -0.0000 -1.0000 -0.0000
vn 1.0000 -0.0000 -0.0000
vn -0.0000 -0.0000 -1.0000
vt 0.999900 0.999900
vt 0.000100 0.000100
vt 0.999900 0.000100
vt 0.375000 0.750000
vt 0.625000 1.000000
vt 0.375000 1.000000
vt 0.375000 0.000000
vt 0.625000 0.250000
vt 0.375000 0.250000
vt 0.125000 0.500000
vt 0.125000 0.750000
vt 0.375000 0.500000
vt 0.625000 0.750000
vt 0.625000 0.500000
vt 0.000100 0.999900
vt 0.625000 0.000000
s 0
usemtl Material.005
f 1/1/1 7/2/1 3/3/1
f 1/1/1 5/15/1 7/2/1
usemtl Material.006
f 4/4/2 7/5/2 8/6/2
f 8/7/3 5/8/3 6/9/3
f 6/10/4 4/4/4 8/11/4
f 2/12/5 3/13/5 4/4/5
f 6/9/6 1/14/6 2/12/6
f 4/4/2 3/13/2 7/5/2
f 8/7/3 7/16/3 5/8/3
f 6/10/4 2/12/4 4/4/4
f 2/12/5 1/14/5 3/13/5
f 6/9/6 5/8/6 1/14/6
