# Blender 4.2.1 LTS
# www.blender.org
mtllib dado4Caras.mtl
o Círculo
v 0.000000 -0.508792 -1.000000
v -0.866025 -0.508792 0.500000
v 0.866025 -0.508792 0.500000
v 0.000000 0.630010 0.000000
vn -0.0000 -1.0000 -0.0000
vn 0.7930 0.4020 -0.4578
vn -0.0000 0.4020 0.9156
vn -0.7930 0.4020 -0.4578
vt 0.500000 0.023069
vt 0.736150 0.488696
vt 0.268772 0.487466
vt 0.515827 0.009533
vt 0.980102 0.010011
vt 0.751674 0.473885
vt 0.266568 0.508450
vt 0.735017 0.507758
vt 0.501929 0.974678
vt 0.019620 0.011183
vt 0.481666 0.009986
vt 0.252454 0.477283
s 0
usemtl Material.001
f 1/1/1 3/2/1 2/3/1
f 3/4/2 1/5/2 4/6/2
f 2/7/3 3/8/3 4/9/3
f 1/10/4 2/11/4 4/12/4
