# Blender 4.2.3 LTS
# www.blender.org
mtllib monopoly.mtl
o Cube
v 1.000000 1.000000 -5.000000
v 1.000000 -1.000000 -5.000000
v 1.000000 1.000000 5.000000
v 1.000000 -1.000000 5.000000
v -1.000000 1.000000 -5.000000
v -1.000000 -1.000000 -5.000000
v -1.000000 1.000000 5.000000
v -1.000000 -1.000000 5.000000
vn -0.0000 1.0000 -0.0000
vn -0.0000 -0.0000 1.0000
vn -1.0000 -0.0000 -0.0000
vn -0.0000 -1.0000 -0.0000
vn 1.0000 -0.0000 -0.0000
vn -0.0000 -0.0000 -1.0000
vt 0.641065 0.455236
vt 0.358935 0.544764
vt 0.358935 0.455236
vt 0.446265 0.736673
vt 0.614663 0.823162
vt 0.459285 0.746537
vt 0.270590 0.833360
vt 0.443092 0.753329
vt 0.422810 0.742341
vt 0.614663 0.668642
vt 0.270590 0.653401
vt 0.641065 0.544764
s 0
usemtl Material
f 1/1/1 7/2/1 3/3/1
f 4/4/2 7/5/2 8/6/2
f 8/6/3 5/7/3 6/8/3
f 6/8/4 4/4/4 8/6/4
f 2/9/5 3/10/5 4/4/5
f 6/8/6 1/11/6 2/9/6
f 1/1/1 5/12/1 7/2/1
f 4/4/2 3/10/2 7/5/2
f 8/6/3 7/5/3 5/7/3
f 6/8/4 2/9/4 4/4/4
f 2/9/5 1/11/5 3/10/5
f 6/8/6 5/7/6 1/11/6
