# Blender 4.2.3 LTS
# www.blender.org
mtllib palm_treeCasilla25.mtl
o mesh0_mesh0.006
v -24.421192 35.046730 -3.557589
v -16.663593 35.296532 -0.346559
v -23.512693 38.684029 -8.406768
v -14.942994 39.344933 -5.275049
v -13.146693 37.019737 -10.687468
v -21.090792 36.725334 -13.043369
v -3.263354 28.750130 1.196470
v -7.551003 36.023033 -3.102088
v -0.764140 29.911232 -5.828049
v -28.522993 33.327934 -8.227169
v -26.874792 34.203438 -13.048368
v -5.931034 22.375629 16.834229
v -2.830254 26.045830 11.083450
v -11.494895 24.637825 16.358429
v -8.287094 29.411629 10.192451
v -12.439895 26.704933 6.704091
v -15.161794 23.133530 12.586532
v 2.432236 28.175133 -0.729880
v -4.880134 30.326332 3.309979
v -6.381094 28.847229 -4.853239
v -10.177073 18.740330 20.059029
v -15.909094 19.208130 17.471527
v 21.955906 23.469830 -8.350968
v 13.974206 27.765434 -8.248769
v 24.025806 24.490135 -1.882539
v 15.469107 29.930031 -0.952980
v 13.709605 25.084732 3.645410
v 21.687906 21.207829 2.438437
v -2.101604 29.636536 -7.148369
v 6.179486 30.867630 -1.380009
v -2.062474 27.536934 2.449549
v 27.717207 18.619530 -6.776550
v 27.606407 17.219131 -0.095541
v -19.002993 40.542633 -17.275568
v -14.169094 38.449829 -9.900968
v -12.748494 43.231941 -22.224669
v -6.774234 41.538132 -14.158367
v -4.352344 37.041733 -17.823568
v -9.572413 39.552536 -24.634169
v -5.661394 29.553833 0.016740
v -3.625264 35.975334 -7.182368
v 1.371456 28.287132 -5.580220
v -21.739693 40.948135 -24.391668
v -15.916294 40.372532 -28.986870
v 9.985306 32.775635 -22.301569
v 3.930306 34.221336 -16.682570
v 14.543107 35.096436 -19.242168
v 8.169056 37.017937 -12.967770
v 11.587605 33.488434 -8.965369
v 17.235607 32.101036 -14.871969
v -5.484633 29.113937 -6.302229
v 2.319006 34.763939 -7.391869
v 0.785756 28.496735 0.182760
v 15.334906 29.673733 -24.068871
v 19.289307 29.375729 -20.080069
v 8.620565 34.175125 19.379431
v 6.662666 35.220634 10.309861
v 3.661506 37.310730 21.635630
v 1.421466 38.860832 11.824761
v -3.979014 35.414330 12.899351
v -1.799614 34.382431 21.795330
v 1.714176 28.722939 -4.154870
v -0.695516 35.831429 3.248656
v -6.848654 28.880730 -2.203729
v 7.048797 31.288727 25.711830
v 1.812916 31.487831 26.982731
v -18.897093 38.712433 9.810051
v -11.206294 38.698631 6.433042
v -22.078192 40.290733 4.814011
v -13.918794 40.491829 0.682651
v -16.132093 36.208031 -3.148548
v -23.353893 36.500534 0.914271
v 0.147438 30.865334 0.556430
v -6.770774 36.883934 -1.824888
v -3.119544 29.145836 -6.024449
v -24.838293 36.249435 10.279651
v -27.137592 35.153435 5.780850
v -7.341864 24.408131 -24.862171
v -7.888034 28.675831 -17.663868
v -2.273484 26.808033 -26.879969
v -2.647304 31.791634 -19.217669
v 2.990526 29.287632 -17.765469
v 3.041496 25.046833 -24.887671
v -6.689744 29.055435 -2.801240
v -2.624264 32.584435 -10.865068
v 2.335796 29.596436 -2.773440
v -4.408884 20.025635 -28.543871
v 1.201516 20.417336 -28.622873
v 20.546406 39.981934 1.986021
v 12.717906 38.228928 -2.791438
v 18.226006 44.493629 5.697492
v 9.619805 43.006126 0.463582
v 6.972576 41.101128 6.081541
v 14.835206 42.770531 10.592122
v -0.056066 28.185532 -6.239920
v 2.522746 37.673729 -2.435698
v -4.771564 30.453835 0.815070
v 24.199108 39.712227 8.108622
v 21.357407 41.220428 12.435163
v -14.914694 47.513130 -8.097767
v -11.867894 41.402328 -3.229569
v -10.216993 51.174828 -7.890068
v -6.648164 44.809532 -2.373388
v -1.928294 44.355133 -6.578158
v -5.388614 50.274628 -11.236267
v -6.145224 27.698433 -1.838470
v -3.833944 37.059433 -0.820328
v 2.145956 30.048729 -4.574610
v -14.781693 50.869934 -13.582067
v -9.639664 52.433128 -15.241065
vn -0.4439 0.7548 0.4830
vn -0.0412 0.7549 0.6545
vn -0.3772 0.9261 0.0068
vn 0.1044 0.9786 0.1773
vn 0.3001 0.8990 -0.3189
vn -0.1098 0.8937 -0.4349
vn 0.5456 0.6408 0.5401
vn 0.4767 0.8270 0.2981
vn 0.6903 0.7138 0.1182
vn -0.7262 0.6822 0.0855
vn -0.5931 0.7495 -0.2939
vn 0.2135 0.6738 0.7074
vn 0.3744 0.7815 0.4990
vn -0.2536 0.7310 0.6335
vn -0.1158 0.9324 0.3425
vn -0.5513 0.8324 0.0563
vn -0.6112 0.7313 0.3026
vn 0.3032 0.9520 0.0418
vn 0.0286 0.9973 0.0679
vn -0.1070 0.9816 -0.1582
vn -0.1194 0.5084 0.8528
vn -0.5005 0.5448 0.6729
vn 0.5431 0.7852 -0.2976
vn 0.2832 0.9040 -0.3203
vn 0.6595 0.7221 0.2090
vn 0.3279 0.9100 0.2539
vn 0.2268 0.6393 0.7348
vn 0.4850 0.5498 0.6801
vn -0.1365 0.9905 -0.0154
vn 0.0127 0.9732 0.2297
vn -0.1589 0.8884 0.4308
vn 0.8129 0.5770 -0.0790
vn 0.8058 0.4815 0.3448
vn -0.1921 0.9435 0.2699
vn -0.0725 0.8622 0.5013
vn 0.1760 0.9757 -0.1308
vn 0.4325 0.8859 0.1676
vn 0.7828 0.5999 -0.1653
vn 0.5772 0.7334 -0.3591
vn 0.3544 0.6458 0.6763
vn 0.5230 0.7299 0.4401
vn 0.7238 0.5557 0.4092
vn -0.2284 0.9706 -0.0754
vn 0.0538 0.9104 -0.4102
vn -0.0390 0.8232 -0.5664
vn -0.3661 0.8849 -0.2880
vn 0.3762 0.8790 -0.2930
vn 0.0297 0.9978 0.0586
vn 0.3569 0.8192 0.4489
vn 0.6251 0.7677 0.1410
vn -0.5372 0.7958 0.2795
vn -0.2582 0.9089 0.3275
vn -0.2113 0.7737 0.5974
vn 0.4213 0.6365 -0.6460
vn 0.6987 0.6295 -0.3400
vn 0.5848 0.7888 0.1892
vn 0.5276 0.8160 -0.2360
vn 0.1137 0.9070 0.4055
vn -0.0023 0.9969 -0.0789
vn -0.5503 0.8347 0.0223
vn -0.4225 0.8101 0.4066
vn 0.0945 0.7333 -0.6733
vn -0.0868 0.8842 -0.4590
vn -0.3530 0.7506 -0.5586
vn 0.3837 0.6559 0.6501
vn -0.0221 0.6800 0.7329
vn -0.0703 0.9375 0.3409
vn 0.3339 0.9265 0.1732
vn -0.3757 0.9242 -0.0679
vn 0.0771 0.9479 -0.3090
vn -0.1202 0.6736 -0.7293
vn -0.4903 0.6997 -0.5197
vn 0.6832 0.6820 -0.2611
vn 0.4431 0.7846 -0.4337
vn 0.4828 0.5826 -0.6538
vn -0.5377 0.7846 0.3086
vn -0.7161 0.6964 -0.0472
vn -0.5231 0.5780 -0.6263
vn -0.5681 0.7848 -0.2476
vn -0.0460 0.6507 -0.7579
vn -0.0608 0.9385 -0.3399
vn 0.4644 0.8487 -0.2532
vn 0.4460 0.6513 -0.6139
vn -0.2830 0.9229 0.2612
vn -0.0661 0.9960 0.0598
vn 0.1716 0.9537 0.2470
vn -0.2301 0.2996 -0.9259
vn 0.1800 0.3487 -0.9198
vn 0.4484 0.6940 -0.5633
vn 0.1086 0.5857 -0.8032
vn 0.2514 0.9569 -0.1452
vn -0.1790 0.8968 -0.4047
vn -0.4761 0.8744 0.0934
vn -0.1151 0.9593 0.2580
vn -0.4921 0.4359 -0.7536
vn -0.4896 0.6788 -0.5473
vn -0.7307 0.5671 -0.3800
vn 0.6435 0.7606 -0.0858
vn 0.4112 0.8803 0.2365
vn -0.4786 0.5764 0.6624
vn -0.3385 0.2473 0.9079
vn -0.0669 0.8354 0.5455
vn 0.1378 0.4927 0.8592
vn 0.6079 0.5248 0.5958
vn 0.4193 0.8228 0.3836
vn 0.1162 -0.1357 0.9839
vn 0.2729 0.1241 0.9540
vn 0.5302 -0.0018 0.8479
vn -0.3943 0.8787 0.2691
vn -0.0084 0.9857 0.1681
vt 0.504183 -0.848786
vt 0.495449 -0.498735
vt 0.743653 -0.914718
vt 0.746121 -0.544413
vt 0.991188 -0.503870
vt 0.979986 -0.807310
vt 0.507444 -0.003412
vt 0.747008 -0.235102
vt 0.992582 -0.003725
vt 0.624808 -0.993555
vt 0.881090 -0.994892
vt 0.014566 -0.841480
vt 0.009522 -0.495345
vt 0.259378 -0.917176
vt 0.259378 -0.556648
vt 0.497031 -0.498527
vt 0.491986 -0.844926
vt 0.009924 -0.003945
vt 0.258004 -0.294222
vt 0.497405 -0.004258
vt 0.134760 -0.999915
vt 0.382878 -0.999298
s 1
usemtl palmLeaf
f 1/1/1 2/2/2 3/3/3
f 4/4/4 3/3/3 2/2/2
f 5/5/5 3/3/3 4/4/4
f 6/6/6 3/3/3 5/5/5
f 2/2/2 7/7/7 8/8/8
f 4/4/4 2/2/2 8/8/8
f 8/8/8 5/5/5 4/4/4
f 7/7/7 9/9/9 8/8/8
f 8/8/8 9/9/9 5/5/5
f 10/10/10 1/1/1 3/3/3
f 11/11/11 3/3/3 6/6/6
f 10/10/10 3/3/3 11/11/11
f 12/12/12 13/13/13 14/14/14
f 15/15/15 14/14/14 13/13/13
f 16/16/16 14/14/14 15/15/15
f 17/17/17 14/14/14 16/16/16
f 13/13/13 18/18/18 19/19/19
f 15/15/15 13/13/13 19/19/19
f 19/19/19 16/16/16 15/15/15
f 18/18/18 20/20/20 19/19/19
f 19/19/19 20/20/20 16/16/16
f 21/21/21 12/12/12 14/14/14
f 22/22/22 14/14/14 17/17/17
f 21/21/21 14/14/14 22/22/22
f 23/12/23 24/13/24 25/14/25
f 26/15/26 25/14/25 24/13/24
f 27/16/27 25/14/25 26/15/26
f 28/17/28 25/14/25 27/16/27
f 24/13/24 29/18/29 30/19/30
f 26/15/26 24/13/24 30/19/30
f 30/19/30 27/16/27 26/15/26
f 29/18/29 31/20/31 30/19/30
f 30/19/30 31/20/31 27/16/27
f 32/21/32 23/12/23 25/14/25
f 33/22/33 25/14/25 28/17/28
f 32/21/32 25/14/25 33/22/33
f 34/12/34 35/13/35 36/14/36
f 37/15/37 36/14/36 35/13/35
f 38/16/38 36/14/36 37/15/37
f 39/17/39 36/14/36 38/16/38
f 35/13/35 40/18/40 41/19/41
f 37/15/37 35/13/35 41/19/41
f 41/19/41 38/16/38 37/15/37
f 40/18/40 42/20/42 41/19/41
f 41/19/41 42/20/42 38/16/38
f 43/21/43 34/12/34 36/14/36
f 44/22/44 36/14/36 39/17/39
f 43/21/43 36/14/36 44/22/44
f 45/1/45 46/2/46 47/3/47
f 48/4/48 47/3/47 46/2/46
f 49/5/49 47/3/47 48/4/48
f 50/6/50 47/3/47 49/5/49
f 46/2/46 51/7/51 52/8/52
f 48/4/48 46/2/46 52/8/52
f 52/8/52 49/5/49 48/4/48
f 51/7/51 53/9/53 52/8/52
f 52/8/52 53/9/53 49/5/49
f 54/10/54 45/1/45 47/3/47
f 55/11/55 47/3/47 50/6/50
f 54/10/54 47/3/47 55/11/55
f 56/1/56 57/2/57 58/3/58
f 59/4/59 58/3/58 57/2/57
f 60/5/60 58/3/58 59/4/59
f 61/6/61 58/3/58 60/5/60
f 57/2/57 62/7/62 63/8/63
f 59/4/59 57/2/57 63/8/63
f 63/8/63 60/5/60 59/4/59
f 62/7/62 64/9/64 63/8/63
f 63/8/63 64/9/64 60/5/60
f 65/10/65 56/1/56 58/3/58
f 66/11/66 58/3/58 61/6/61
f 65/10/65 58/3/58 66/11/66
f 67/1/67 68/2/68 69/3/69
f 70/4/70 69/3/69 68/2/68
f 71/5/71 69/3/69 70/4/70
f 72/6/72 69/3/69 71/5/71
f 68/2/68 73/7/73 74/8/74
f 70/4/70 68/2/68 74/8/74
f 74/8/74 71/5/71 70/4/70
f 73/7/73 75/9/75 74/8/74
f 74/8/74 75/9/75 71/5/71
f 76/10/76 67/1/67 69/3/69
f 77/11/77 69/3/69 72/6/72
f 76/10/76 69/3/69 77/11/77
f 78/1/78 79/2/79 80/3/80
f 81/4/81 80/3/80 79/2/79
f 82/5/82 80/3/80 81/4/81
f 83/6/83 80/3/80 82/5/82
f 79/2/79 84/7/84 85/8/85
f 81/4/81 79/2/79 85/8/85
f 85/8/85 82/5/82 81/4/81
f 84/7/84 86/9/86 85/8/85
f 85/8/85 86/9/86 82/5/82
f 87/10/87 78/1/78 80/3/80
f 88/11/88 80/3/80 83/6/83
f 87/10/87 80/3/80 88/11/88
f 89/1/89 90/2/90 91/3/91
f 92/4/92 91/3/91 90/2/90
f 93/5/93 91/3/91 92/4/92
f 94/6/94 91/3/91 93/5/93
f 90/2/90 95/7/95 96/8/96
f 92/4/92 90/2/90 96/8/96
f 96/8/96 93/5/93 92/4/92
f 95/7/95 97/9/97 96/8/96
f 96/8/96 97/9/97 93/5/93
f 98/10/98 89/1/89 91/3/91
f 99/11/99 91/3/91 94/6/94
f 98/10/98 91/3/91 99/11/99
f 100/1/100 101/2/101 102/3/102
f 103/4/103 102/3/102 101/2/101
f 104/5/104 102/3/102 103/4/103
f 105/6/105 102/3/102 104/5/104
f 101/2/101 106/7/106 107/8/107
f 103/4/103 101/2/101 107/8/107
f 107/8/107 104/5/104 103/4/103
f 106/7/106 108/9/108 107/8/107
f 107/8/107 108/9/108 104/5/104
f 109/10/109 100/1/100 102/3/102
f 110/11/110 102/3/102 105/6/105
f 109/10/109 102/3/102 110/11/110
o mesh1_mesh1.006
v 1.668356 -27.779984 2.117966
v 0.585957 -20.152920 5.416666
v 1.934086 -28.261280 7.619195
v 0.414281 -21.034046 1.965396
v -1.474154 -19.642788 7.414765
v -1.254696 -28.539928 10.804105
v -4.049304 -19.967419 6.143236
v -5.240674 -28.362610 8.777346
v -4.564334 -20.894928 2.510321
v -6.037874 -27.855972 2.986579
v -2.160864 -21.265926 1.057166
v -2.317624 -27.653324 0.670266
v 0.915706 -13.705567 3.029620
v 0.819906 -13.976968 0.992967
v -0.233954 -13.359168 4.120487
v -1.671034 -13.579568 3.426304
v -1.958444 -13.882468 1.290477
v -0.617175 -14.134468 0.497117
v 1.675906 -3.897868 1.599568
v 1.581996 -4.128868 -0.023262
v 0.548979 -4.054368 2.696302
v -0.859678 -3.954768 1.998378
v -1.141410 -4.171569 0.275848
v 0.173338 -4.057769 -0.521782
v 0.785226 9.981935 -2.563511
v 0.698526 10.121934 -3.597120
v -0.255195 10.178933 -1.590071
v -1.555724 10.053533 -2.209530
v -1.815834 10.175733 -3.331651
v -0.602003 10.032331 -4.039611
v -0.910659 20.404629 -3.212640
v -0.982100 20.478230 -4.091920
v -2.022984 20.313530 -2.376980
v -2.839544 20.371529 -2.908760
v -3.053864 20.453331 -3.864000
v -2.308744 20.519531 -4.471770
v -1.233046 29.202835 -2.469720
v -1.277815 29.736534 -3.231840
v -1.770274 28.893936 -2.028499
v -2.441814 29.090530 -2.309280
v -2.576124 29.652229 -3.111500
v -1.949354 29.876938 -3.432380
vn 0.8355 0.1295 -0.5340
vn 0.9199 0.1751 0.3510
vn 0.8737 0.2491 0.4178
vn 0.7918 0.0113 -0.6106
vn 0.1172 0.4059 0.9064
vn 0.1257 0.3611 0.9240
vn -0.7915 0.3654 0.4899
vn -0.7321 0.3047 0.6093
vn -0.8802 0.1877 -0.4359
vn -0.9235 0.1759 -0.3410
vn -0.1273 0.0097 -0.9918
vn -0.1137 0.0604 -0.9917
vn 0.9398 0.0272 0.3407
vn 0.7983 -0.1242 -0.5893
vn 0.1847 0.2782 0.9426
vn -0.7957 0.3325 0.5063
vn -0.8642 0.1326 -0.4854
vn -0.0789 -0.0801 -0.9937
vn 0.9225 0.0834 0.3769
vn 0.8164 -0.1045 -0.5679
vn 0.1747 0.2032 0.9634
vn -0.7785 0.1538 0.6085
vn -0.9104 -0.0484 -0.4109
vn -0.0839 -0.1770 -0.9806
vn 0.9355 0.1613 0.3144
vn 0.7848 -0.0023 -0.6198
vn 0.1794 0.2090 0.9613
vn -0.7949 0.0448 0.6051
vn -0.8977 -0.1433 -0.4166
vn -0.0861 -0.1516 -0.9847
vn 0.9112 0.0873 0.4027
vn 0.7516 0.0871 -0.6538
vn -0.0011 0.0090 1.0000
vn -0.8346 -0.0387 0.5495
vn -0.9399 -0.0227 -0.3406
vn -0.2206 0.0272 -0.9750
vn 0.9583 0.0081 0.2857
vn 0.6752 0.0868 -0.7325
vn 0.1792 -0.0398 0.9830
vn -0.8461 0.0099 0.5329
vn -0.7995 0.0886 -0.5941
vn -0.0782 0.1041 -0.9915
vt 0.171484 -0.032527
vt 0.578752 -0.971041
vt 0.561651 -0.032527
vt 0.180874 -0.971830
vt 0.968571 -0.967718
vt 0.958846 -0.032527
vt 0.748478 -0.969833
vt 0.741595 -0.032527
vt 0.361429 -0.970923
vt 0.350822 -0.032527
vt 0.021977 -0.973339
vt 0.014615 -0.032527
vt 0.564542 -0.036374
vt 0.181987 -0.046647
vt 0.952343 -0.036332
vt 0.745374 -0.036358
vt 0.350161 -0.036434
vt 0.012175 -0.036463
vt 0.586024 -0.971135
vt 0.208917 -0.970716
vt 0.984400 -0.958479
vt 0.770697 -0.960041
vt 0.379969 -0.964500
vt 0.034309 -0.966278
vt 0.553207 -0.037322
vt 0.171063 -0.031949
vt 0.961326 -0.044734
vt 0.741423 -0.040019
vt 0.356610 -0.031497
vt 0.015683 -0.028581
vt 0.547668 -0.972854
vt 0.186893 -0.970581
vt 0.950275 -0.971697
vt 0.757551 -0.970861
vt 0.359099 -0.968464
vt 0.022177 -0.969980
vt 0.531209 -0.036817
vt 0.181336 -0.036817
vt 0.946193 -0.036817
vt 0.741292 -0.036817
vt 0.341848 -0.036817
vt 0.016375 -0.036817
s 1
usemtl palmBark
f 111/23/111 112/24/112 113/25/113
f 112/24/112 111/23/111 114/26/114
f 113/25/113 112/24/112 115/27/115
f 115/27/115 116/28/116 113/25/113
f 117/29/117 116/28/116 115/27/115
f 116/28/116 117/29/117 118/30/118
f 118/30/118 117/29/117 119/31/119
f 119/31/119 120/32/120 118/30/118
f 121/33/121 120/32/120 119/31/119
f 114/26/114 111/23/111 122/34/122
f 122/34/122 121/33/121 114/26/114
f 120/32/120 121/33/121 122/34/122
f 114/26/114 123/35/123 112/24/112
f 124/36/124 114/26/114 121/33/121
f 123/35/123 114/26/114 124/36/124
f 112/24/112 123/35/123 125/37/125
f 125/37/125 115/27/115 112/24/112
f 126/38/126 115/27/115 125/37/125
f 115/27/115 126/38/126 117/29/117
f 117/29/117 126/38/126 127/39/127
f 127/39/127 119/31/119 117/29/117
f 119/31/119 128/40/128 121/33/121
f 121/33/121 128/40/128 124/36/124
f 128/40/128 119/31/119 127/39/127
f 124/36/124 129/41/129 123/35/123
f 130/42/130 124/36/124 128/40/128
f 129/41/129 124/36/124 130/42/130
f 123/35/123 129/41/129 131/43/131
f 131/43/131 125/37/125 123/35/123
f 132/44/132 125/37/125 131/43/131
f 125/37/125 132/44/132 126/38/126
f 126/38/126 132/44/132 133/45/133
f 133/45/133 127/39/127 126/38/126
f 127/39/127 134/46/134 128/40/128
f 128/40/128 134/46/134 130/42/130
f 134/46/134 127/39/127 133/45/133
f 130/42/130 135/47/135 129/41/129
f 136/48/136 130/42/130 134/46/134
f 135/47/135 130/42/130 136/48/136
f 129/41/129 135/47/135 137/49/137
f 137/49/137 131/43/131 129/41/129
f 138/50/138 131/43/131 137/49/137
f 131/43/131 138/50/138 132/44/132
f 132/44/132 138/50/138 139/51/139
f 139/51/139 133/45/133 132/44/132
f 133/45/133 140/52/140 134/46/134
f 134/46/134 140/52/140 136/48/136
f 140/52/140 133/45/133 139/51/139
f 136/48/136 141/53/141 135/47/135
f 142/54/142 136/48/136 140/52/140
f 141/53/141 136/48/136 142/54/142
f 135/47/135 141/53/141 143/55/143
f 143/55/143 137/49/137 135/47/135
f 144/56/144 137/49/137 143/55/143
f 137/49/137 144/56/144 138/50/138
f 138/50/138 144/56/144 145/57/145
f 145/57/145 139/51/139 138/50/138
f 139/51/139 146/58/146 140/52/140
f 140/52/140 146/58/146 142/54/142
f 146/58/146 139/51/139 145/57/145
f 142/54/142 147/59/147 141/53/141
f 148/60/148 142/54/142 146/58/146
f 147/59/147 142/54/142 148/60/148
f 141/53/141 147/59/147 149/61/149
f 149/61/149 143/55/143 141/53/141
f 150/62/150 143/55/143 149/61/149
f 143/55/143 150/62/150 144/56/144
f 144/56/144 150/62/150 151/63/151
f 151/63/151 145/57/145 144/56/144
f 145/57/145 152/64/152 146/58/146
f 146/58/146 152/64/152 148/60/148
f 152/64/152 145/57/145 151/63/151
