# Blender 4.2.1 LTS
# www.blender.org
mtllib pineTreeCasilla06.mtl
o FP_pat_treeA_H.mo
v -0.004330 -1.161111 -0.056857
v -0.055734 -1.161111 -0.027178
v -0.004330 -0.251111 0.002500
v 0.047074 -1.161111 -0.027178
v -0.004330 -1.161111 -0.056857
v 0.047074 -1.161111 0.032178
v 0.047074 -1.161111 -0.027178
v -0.004330 -1.161111 0.061857
v 0.047074 -1.161111 0.032178
v -0.055734 -1.161111 0.032178
v -0.004330 -1.161111 0.061857
v -0.055734 -1.161111 -0.027178
v -0.055734 -1.161111 0.032178
v 0.000000 -0.296111 0.610938
v 0.000000 -0.296111 -0.610937
v 0.000000 1.128889 0.000000
v 0.000000 -0.723611 -0.730469
v -0.000000 -0.723611 0.730469
v -0.003309 -0.930382 -0.235573
v -0.003309 -0.930382 0.262136
v 0.431998 -0.296111 0.431998
v -0.431998 -0.296111 -0.431998
v -0.516519 -0.723611 -0.516519
v 0.516519 -0.723611 0.516520
v -0.167545 -0.935073 -0.167545
v 0.184389 -0.935073 0.184389
v 0.610938 -0.296111 0.000000
v -0.610937 -0.296111 0.000000
v -0.730469 -0.723611 0.000000
v 0.730469 -0.723611 0.000000
v -0.235573 -0.935073 -0.003309
v 0.262136 -0.935073 -0.003309
v -0.516519 -0.723611 0.516519
v 0.184389 -0.935073 -0.191007
v -0.167545 -0.935073 0.160927
v 0.516520 -0.723611 -0.516519
v 0.431998 -0.296111 -0.431998
v -0.431998 -0.296111 0.431998
v 0.304427 0.029809 0.000000
v 0.295143 -0.389026 -0.295129
v 0.215105 0.029809 -0.215116
v 0.417690 -0.389026 0.000000
v 0.215105 0.029809 0.215116
v 0.295143 -0.389026 0.295129
v -0.000011 0.029809 0.304220
v 0.000014 -0.389026 0.417376
v -0.215127 0.029809 0.215116
v -0.295115 -0.389026 0.295129
v -0.304231 0.029809 0.000000
v -0.417362 -0.389026 0.000000
v -0.215127 0.029809 -0.215116
v -0.295116 -0.389026 -0.295129
v -0.000011 0.029809 -0.304220
v 0.000014 -0.389026 -0.417376
v 0.679459 -0.745589 0.000000
v 0.480098 -0.745589 0.480123
v -0.000024 -0.745589 0.678996
v -0.480147 -0.745589 0.480122
v -0.679020 -0.745589 0.000000
v -0.000025 -0.745589 -0.678995
v 0.480098 -0.745589 -0.480122
v -0.480147 -0.745589 -0.480122
v 0.421823 -0.271265 -0.421887
v 0.304427 0.029808 0.000000
v 0.597003 -0.271265 0.000000
v 0.215105 0.029808 -0.215116
v -0.000011 0.029808 -0.304220
v 0.000000 0.859190 -0.000000
v -0.215127 0.029808 -0.215116
v -0.304231 0.029808 0.000000
v -0.421952 -0.271265 -0.421887
v -0.596704 -0.271265 0.000000
v 0.215105 0.029808 0.215116
v -0.000011 0.029808 0.304220
v 0.421822 -0.271265 0.421887
v -0.000065 -0.271265 0.596639
v -0.000065 -0.271265 -0.596639
v -0.215127 0.029808 0.215116
v -0.421952 -0.271265 0.421887
vn 0.0001 1.0000 -0.0000
vn -0.4992 0.0564 -0.8646
vn -0.0000 1.0000 0.0001
vn 0.4992 0.0564 -0.8646
vn -0.0001 1.0000 -0.0001
vn 0.9984 0.0564 -0.0000
vn -0.0000 1.0000 -0.0001
vn 0.4992 0.0564 0.8646
vn -0.4992 0.0564 0.8646
vn 0.0001 1.0000 -0.0001
vn -0.9984 0.0564 -0.0000
vn 0.3828 -0.0000 -0.9238
vn 1.0000 -0.0000 -0.0000
vn 1.0000 -0.0037 -0.0000
vn 1.0000 -0.0039 -0.0000
vn 0.9999 -0.0160 -0.0000
vn 0.7071 -0.0000 -0.7071
vn 0.3826 -0.0000 -0.9239
vn -0.0000 -0.0000 -1.0000
vn -0.0000 0.0037 -1.0000
vn -0.0000 0.0038 -1.0000
vn -0.0000 0.0039 -1.0000
vn -0.0000 0.0156 -0.9999
vn -0.7069 0.0221 -0.7069
vn -0.7071 0.0052 -0.7071
vn -0.7071 0.0055 -0.7071
vn -0.7071 -0.0000 -0.7071
vn 0.3826 -0.0001 -0.9239
vn 0.6823 0.2609 -0.6830
vn 0.9653 0.2610 -0.0000
vn 0.6304 0.4521 -0.6310
vn 0.8918 0.4524 -0.0000
vn 0.6823 0.2609 0.6829
vn 0.6304 0.4521 0.6310
vn -0.0000 0.2608 0.9654
vn -0.0000 0.4521 0.8920
vn -0.6826 0.2608 0.6826
vn -0.6307 0.4521 0.6307
vn -0.9654 0.2608 -0.0000
vn -0.8919 0.4521 -0.0000
vn -0.6827 0.2608 -0.6826
vn -0.6307 0.4521 -0.6307
vn -0.0000 0.2608 -0.9654
vn -0.0000 0.4521 -0.8920
vn 0.8061 0.5918 -0.0000
vn 0.5699 0.5915 0.5704
vn -0.0000 0.5916 0.8063
vn -0.5701 0.5916 0.5701
vn -0.8062 0.5916 -0.0000
vn 0.5699 0.5915 -0.5704
vn -0.0000 0.5916 -0.8063
vn -0.5701 0.5916 -0.5701
vn 0.7172 0.6969 -0.0000
vn 0.5071 0.6967 -0.5075
vn 0.8306 0.5568 -0.0000
vn 0.5872 0.5565 -0.5878
vn -0.0000 0.5565 -0.8308
vn -0.0000 1.0000 -0.0000
vn -0.5875 0.5566 -0.5875
vn -0.8308 0.5566 -0.0000
vn -0.5072 0.6968 -0.5072
vn -0.7173 0.6968 -0.0000
vn 0.5872 0.5565 0.5878
vn -0.0000 0.5565 0.8308
vn 0.5071 0.6967 0.5075
vn -0.0000 0.6967 0.7173
vn -0.0000 0.6967 -0.7173
vn -0.5875 0.5566 0.5875
vn -0.5072 0.6968 0.5072
vt 0.500000 0.277771
vt 0.473267 0.005066
vt 0.526733 0.005066
vt 0.500977 1.125000
vt 1.000000 0.421875
vt 0.000000 0.421875
vt -0.042664 0.199829
vt 1.043030 0.210388
vt 0.304504 0.116089
vt 0.718445 0.116089
vt 0.308594 0.517090
vt 0.431274 0.495178
vt 0.226684 0.331238
vt 0.399170 0.294373
vt 0.380554 0.120056
vt 0.109009 0.150268
vt 0.370361 0.106506
vt -0.036194 0.169495
vt 0.425537 0.338440
vt 0.271240 0.392334
vt 0.477539 0.902649
s 1
usemtl jog_treeA.001
f 3/1/1 1/2/2 2/3/2
f 3/1/3 4/2/4 5/3/4
f 3/1/5 6/2/6 7/3/6
f 3/1/7 8/2/8 9/3/8
f 3/1/7 10/2/9 11/3/9
f 3/1/10 12/2/11 13/3/11
f 16/4/12 14/5/13 15/6/13
s 0
f 15/6/13 14/5/13 17/7/14
f 14/5/13 18/8/15 17/7/14
s 1
f 17/7/14 18/8/15 19/9/16
f 18/8/15 20/10/16 19/9/16
f 16/4/12 21/5/17 22/6/17
s 0
f 22/6/17 21/5/17 23/7/17
f 21/5/17 24/8/17 23/7/17
f 23/7/17 24/8/17 25/9/17
f 24/8/17 26/10/17 25/9/17
s 1
f 16/4/18 27/5/19 28/6/19
s 0
f 28/6/19 27/5/19 29/7/20
f 27/5/19 30/8/21 29/7/20
s 1
f 29/7/20 30/8/22 31/9/23
f 30/8/22 32/10/23 31/9/23
f 35/9/24 33/7/25 34/10/24
f 34/10/24 33/7/25 36/8/26
f 33/7/25 37/5/27 36/8/26
f 16/4/28 37/5/27 38/6/27
f 38/6/27 37/5/27 33/7/25
f 41/11/29 39/12/30 40/13/31
f 40/13/31 39/12/30 42/14/32
f 39/12/30 43/11/33 42/14/32
f 42/14/32 43/11/33 44/13/34
f 43/11/33 45/12/35 44/13/34
f 44/13/34 45/12/35 46/14/36
f 45/12/35 47/11/37 46/14/36
f 46/14/36 47/11/37 48/13/38
f 47/11/37 49/12/39 48/13/38
f 48/13/38 49/12/39 50/14/40
f 49/12/39 51/11/41 50/14/40
f 50/14/40 51/11/41 52/13/42
f 51/11/41 53/12/43 52/13/42
f 52/13/42 53/12/43 54/14/44
f 42/14/32 44/13/34 55/15/45
f 55/15/45 44/13/34 56/16/46
f 44/13/34 46/14/36 56/16/46
f 56/16/46 46/14/36 57/15/47
f 46/14/36 48/13/38 57/15/47
f 57/15/47 48/13/38 58/16/48
f 48/13/38 59/15/49 58/16/48
f 61/16/50 60/15/51 54/14/44
f 54/14/44 60/15/51 52/13/42
f 60/15/51 62/16/52 52/13/42
f 52/13/42 62/16/52 50/14/40
f 62/16/52 59/15/49 50/14/40
f 50/14/40 59/15/49 48/13/38
f 55/15/45 61/16/50 42/14/32
f 42/14/32 61/16/50 40/13/31
f 61/16/50 54/14/44 40/13/31
f 40/13/31 54/14/44 41/11/29
f 54/14/44 53/12/43 41/11/29
f 65/17/53 63/18/54 64/19/55
f 64/19/55 63/18/54 66/20/56
f 63/18/54 67/19/57 66/20/56
f 66/20/56 67/19/57 68/21/58
f 67/19/57 69/20/59 68/21/58
f 68/21/58 69/20/59 70/19/60
f 69/20/59 71/18/61 70/19/60
f 70/19/60 71/18/61 72/17/62
f 66/20/56 68/21/58 64/19/55
f 64/19/55 68/21/58 73/20/63
f 68/21/58 74/19/64 73/20/63
f 73/20/63 74/19/64 75/18/65
f 74/19/64 76/17/66 75/18/65
f 63/18/54 77/17/67 67/19/57
f 67/19/57 77/17/67 69/20/59
f 77/17/67 71/18/61 69/20/59
f 68/21/58 78/20/68 74/19/64
f 74/19/64 78/20/68 76/17/66
f 78/20/68 79/18/69 76/17/66
f 64/19/55 73/20/63 65/17/53
f 65/17/53 73/20/63 75/18/65
f 68/21/58 70/19/60 78/20/68
f 78/20/68 70/19/60 72/17/62
f 72/17/62 79/18/69 78/20/68
