# Blender 4.2.3 LTS
# www.blender.org
mtllib recta.mtl
o Plane.017
v 11.994041 -0.000001 9.351816
v 11.994041 -0.000002 -14.648184
v 5.994041 -0.000001 9.351816
v 5.994041 -0.000002 -14.648184
v 11.994041 0.352444 9.351816
v 11.994041 0.352443 -14.648184
v 6.368546 0.352444 9.351816
v 6.368546 0.352443 -14.648184
v 6.040482 0.352444 9.351816
v 5.994041 0.324558 9.351816
v 5.994041 0.324557 -14.648184
v 6.040482 0.352443 -14.648184
v -12.005959 -0.000001 9.351816
v -12.005959 -0.000002 -14.648184
v -0.005959 -0.000001 9.351816
v -0.005959 -0.000002 -14.648184
v -6.005959 -0.000001 9.351816
v -6.005959 -0.000002 -14.648184
v -12.005959 0.352444 9.351816
v -12.005959 0.352443 -14.648184
v -6.380463 0.352444 9.351816
v -6.380463 0.352443 -14.648184
v -6.052399 0.352444 9.351816
v -6.005959 0.324558 9.351816
v -6.005959 0.324557 -14.648184
v -6.052399 0.352443 -14.648184
vn -0.0000 1.0000 -0.0000
vn 1.0000 -0.0000 -0.0000
vn -1.0000 -0.0000 -0.0000
vn -0.5148 0.8573 -0.0000
vn 0.5148 0.8573 -0.0000
vt 0.411726 -0.943080
vt 0.991281 -0.943080
vt 0.991281 1.000000
vt 0.411726 1.000000
vt 0.000000 0.000000
vt -1.868691 -0.020601
vt 4.110485 -0.020601
vt 4.110485 1.004788
vt -1.868691 1.004788
vt 7.287572 0.000000
vt 0.000000 1.000000
vt 7.287572 1.000000
vt 0.037058 1.065179
vt 0.037058 0.000407
vt 7.287621 0.000407
vt 7.287621 1.065179
vt 0.000000 -3.602234
vt 1.365877 -3.602234
vt 1.365877 3.212264
vt 0.000000 3.212264
s 0
usemtl None_Roads0069_9_S.jpg
f 15/1/1 3/2/1 4/3/1 16/4/1
f 15/1/1 16/4/1 18/3/1 17/2/1
usemtl None_NONE
f 1/5/2 2/5/2 6/5/2 5/5/2
f 13/5/3 19/5/3 20/5/3 14/5/3
usemtl None_CordonMedium.jpg.001
f 9/6/4 12/7/4 11/8/4 10/9/4
f 23/6/5 24/9/5 25/8/5 26/7/5
usemtl None_CordonTop.jpg.001
f 4/10/3 3/5/3 10/11/3 11/12/3
f 9/13/1 7/14/1 8/15/1 12/16/1
f 18/10/2 25/12/2 24/11/2 17/5/2
f 23/13/1 26/16/1 22/15/1 21/14/1
usemtl None_FloorsRegular0277_1_S.jpg.001
f 7/17/1 5/18/1 6/19/1 8/20/1
f 21/17/1 22/20/1 20/19/1 19/18/1
