# Blender 4.2.3 LTS
# www.blender.org
mtllib StraightRoad.mtl
o RoadStraight
v 0.053400 0.146080 24.937363
v 0.053400 0.146080 -24.996353
v -6.489141 0.176068 24.937363
v -6.489141 0.176068 -24.996353
v -6.494144 0.207752 24.937363
v -6.494144 0.207752 -24.996353
v -6.509152 0.249440 24.937363
v -6.509152 0.249440 -24.996353
v -6.778761 0.249440 24.937363
v -6.778761 0.249440 -24.996353
v -6.778761 0.152002 24.937363
v -6.778761 0.152002 -24.996353
v -10.291542 0.152002 24.937363
v -10.291542 0.152002 -24.996353
v -6.191781 0.141127 24.937363
v -6.254936 0.135623 24.937363
v -6.254936 0.135623 -24.996353
v -6.191781 0.141127 -24.996353
v -6.348258 0.119311 24.937363
v -6.409044 0.101786 24.937363
v -6.409044 0.101786 -24.996353
v -6.348258 0.119311 -24.996353
v -6.459696 0.081065 24.937363
v -6.489141 0.100834 24.937363
v -6.489141 0.100834 -24.996353
v -6.459696 0.081065 -24.996353
v -10.291542 -0.805139 24.937363
v -10.291542 -0.805139 -24.996353
v -0.053400 0.146080 24.937363
v -0.053400 0.146080 -24.996353
v 6.489141 0.176068 24.937363
v 6.489141 0.176068 -24.996353
v 6.494144 0.207752 24.937363
v 6.494144 0.207752 -24.996353
v 6.509152 0.249440 24.937363
v 6.509152 0.249440 -24.996353
v 6.778761 0.249440 24.937363
v 6.778761 0.249440 -24.996353
v 6.778761 0.152002 24.937363
v 6.778761 0.152002 -24.996353
v 10.291542 0.152002 24.937363
v 10.291542 0.152002 -24.996353
v 6.191781 0.141127 24.937363
v 6.254936 0.135623 24.937363
v 6.254936 0.135623 -24.996353
v 6.191781 0.141127 -24.996353
v 6.348258 0.119311 24.937363
v 6.409044 0.101786 24.937363
v 6.409044 0.101786 -24.996353
v 6.348258 0.119311 -24.996353
v 6.459696 0.081065 24.937363
v 6.489141 0.100834 24.937363
v 6.489141 0.100834 -24.996353
v 6.459696 0.081065 -24.996353
v 10.291542 -0.805139 24.937363
v 10.291542 -0.805139 -24.996353
vn -0.3786 0.9255 -0.0000
vn -0.0008 1.0000 -0.0000
vn 1.0000 -0.0000 -0.0000
vn 0.9878 0.1560 -0.0000
vn 0.9409 0.3387 -0.0000
vn -0.0000 1.0000 -0.0000
vn -1.0000 -0.0000 -0.0000
vn -0.0868 0.9962 -0.0000
vn -0.2770 0.9609 -0.0000
vn 0.5574 0.8302 -0.0000
vn -0.1722 0.9851 -0.0000
vn 0.3786 0.9255 -0.0000
vn 0.0008 1.0000 -0.0000
vn -0.9878 0.1560 -0.0000
vn -0.9409 0.3387 -0.0000
vn 0.0868 0.9962 -0.0000
vn 0.2770 0.9609 -0.0000
vn -0.5574 0.8302 -0.0000
vn 0.1722 0.9851 -0.0000
vt 0.012204 -1.686762
vt 0.012204 2.686592
vt 0.004414 2.685618
vt 0.004414 -1.685868
vt 0.045472 -1.688462
vt 1.000000 -1.688677
vt 1.000000 2.688677
vt 0.045472 2.688443
vt 0.000000 0.000000
vt 1.942509 5.322955
vt 1.942506 -4.322955
vt -0.942509 -4.322955
vt -0.942506 5.322955
vt 0.035821 2.688184
vt 0.035821 -1.688225
vt 0.021531 -1.687520
vt 0.021531 2.687417
vt 0.000000 2.686548
vt 0.000000 -1.686721
s 0
usemtl RoadStraight
f 20/1/1 21/2/1 26/3/1 23/4/1
f 15/5/2 1/6/2 2/7/2 18/8/2
f 17/14/8 16/15/8 15/5/8 18/8/8
f 21/2/9 20/1/9 19/16/9 22/17/9
f 25/18/10 24/19/10 23/4/10 26/3/10
f 16/15/11 17/14/11 22/17/11 19/16/11
f 48/1/12 51/4/12 54/3/12 49/2/12
f 43/5/13 46/8/13 30/7/13 29/6/13
f 45/14/16 46/8/16 43/5/16 44/15/16
f 49/2/17 50/17/17 47/16/17 48/1/17
f 53/18/18 54/3/18 51/4/18 52/19/18
f 44/15/19 47/16/19 50/17/19 45/14/19
usemtl Curb
f 24/9/3 25/9/3 4/9/3 3/9/3
f 3/9/4 4/9/4 6/9/4 5/9/4
f 5/9/5 6/9/5 8/9/5 7/9/5
f 7/9/6 8/9/6 10/9/6 9/9/6
f 9/9/7 10/9/7 12/9/7 11/9/7
f 52/9/7 31/9/7 32/9/7 53/9/7
f 31/9/14 33/9/14 34/9/14 32/9/14
f 33/9/15 35/9/15 36/9/15 34/9/15
f 35/9/6 37/9/6 38/9/6 36/9/6
f 37/9/3 39/9/3 40/9/3 38/9/3
usemtl FootPath
f 11/10/6 12/11/6 14/12/6 13/13/6
f 13/13/7 14/12/7 28/12/7 27/13/7
f 39/10/6 41/13/6 42/12/6 40/11/6
f 41/13/3 55/13/3 56/12/3 42/12/3
